<svg version="1.1" viewBox="0.0 0.0 128.0 128.0" fill="none" stroke="none" stroke-linecap="square" stroke-miterlimit="10" xmlns:xlink="http://www.w3.org/1999/xlink" xmlns="http://www.w3.org/2000/svg"><clipPath id="p.0"><path d="m0 0l128.0 0l0 128.0l-128.0 0l0 -128.0z" clip-rule="nonzero"/></clipPath><g clip-path="url(#p.0)"><path fill="#000000" fill-opacity="0.0" d="m0 0l128.0 0l0 128.0l-128.0 0z" fill-rule="evenodd"/><path fill="#000000" d="m0 -2.0209975E-5l128.0 0l0 30.267717l-128.0 0z" fill-rule="evenodd"/><path stroke="#000000" stroke-width="1.0" stroke-linejoin="round" stroke-linecap="butt" d="m0 -2.0209975E-5l128.0 0l0 30.267717l-128.0 0z" fill-rule="evenodd"/><path fill="#000000" d="m0 97.72665l128.0 0l0 30.267715l-128.0 0z" fill-rule="evenodd"/><path stroke="#000000" stroke-width="1.0" stroke-linejoin="round" stroke-linecap="butt" d="m0 97.72665l128.0 0l0 30.267715l-128.0 0z" fill-rule="evenodd"/><path fill="#000000" d="m0 48.864624l128.0 0l0 30.267715l-128.0 0z" fill-rule="evenodd"/><path stroke="#000000" stroke-width="1.0" stroke-linejoin="round" stroke-linecap="butt" d="m0 48.864624l128.0 0l0 30.267715l-128.0 0z" fill-rule="evenodd"/></g></svg>