<svg version="1.1" viewBox="0.0 0.0 128.0 128.0" fill="none" stroke="none" stroke-linecap="square" stroke-miterlimit="10" xmlns:xlink="http://www.w3.org/1999/xlink" xmlns="http://www.w3.org/2000/svg"><clipPath id="p.0"><path d="m0 0l128.0 0l0 128.0l-128.0 0l0 -128.0z" clip-rule="nonzero"/></clipPath><g clip-path="url(#p.0)"><path fill="#000000" fill-opacity="0.0" d="m0 0l128.0 0l0 128.0l-128.0 0z" fill-rule="evenodd"/><path fill="#000000" d="m0 64.0l0 0c0 -35.346222 28.653776 -64.0 64.0 -64.0l0 0c16.973854 0 33.252502 6.742838 45.254837 18.745167c12.002327 12.002327 18.745163 28.28098 18.745163 45.254833l0 0c0 35.346222 -28.653778 64.0 -64.0 64.0l0 0c-35.346222 0 -64.0 -28.653778 -64.0 -64.0z" fill-rule="evenodd"/><path fill="#ffffff" d="m47.637794 49.548557l26.48819 0l0 5.6062965l-26.48819 0z" fill-rule="evenodd"/><path fill="#ffffff" d="m57.771652 49.548557l16.346458 0l0 52.503933l-16.346458 0z" fill-rule="evenodd"/><path fill="#ffffff" d="m45.716534 96.4462l36.56693 0l0 5.6062927l-36.56693 0z" fill-rule="evenodd"/><path fill="#ffffff" d="m56.716534 35.175854l0 0c0 -5.096676 4.131672 -9.228348 9.228352 -9.228348l0 0c2.4475098 0 4.7947693 0.97227097 6.525421 2.702921c1.7306519 1.73065 2.702919 4.077917 2.702919 6.525427l0 0c0 5.096676 -4.131668 9.228344 -9.22834 9.228344l0 0c-5.0966797 0 -9.228352 -4.131668 -9.228352 -9.228344z" fill-rule="evenodd"/></g></svg>